<?xml version="1.0" encoding="utf-8"?>
<!-- Generator: Adobe Illustrator 27.2.0, SVG Export Plug-In . SVG Version: 6.00 Build 0)  -->
<svg version="1.1" id="레이어_1" xmlns="http://www.w3.org/2000/svg" xmlns:xlink="http://www.w3.org/1999/xlink" x="0px"
	 y="0px" viewBox="0 0 128 128" style="enable-background:new 0 0 128 128;" xml:space="preserve">
<style type="text/css">
	.st0{fill:#F4F5F5;fill-opacity:0;}
	.st1{fill:#2BBA73;}
	.st2{clip-path:url(#SVGID_00000012472212266729853360000011241867660083594405_);fill:#23A56A;}
	.st3{fill:#F1F1F1;}
	.st4{clip-path:url(#SVGID_00000118385607649345684350000008202092250940480642_);}
	.st5{fill:#DDE1F1;}
	.st6{fill:#C2DFC9;}
	.st7{fill:#495260;}
	.st8{fill:#0E9CD9;}
	.st9{fill:#E95037;}
	.st10{fill:#69B32D;}
	
		.st11{opacity:0.4;clip-path:url(#SVGID_00000154412527369741402240000010317227188721505703_);fill:#FFFFFF;enable-background:new    ;}
</style>
<g id="Layer_1">
	<rect x="-60" y="-351" class="st0" width="727.9" height="1520"/>
</g>
<g id="Layer_2">
	<g>
		<circle class="st1" cx="64" cy="64" r="64"/>
		<g>
			<g>
				<defs>
					<circle id="SVGID_1_" cx="64" cy="64" r="64"/>
				</defs>
				<clipPath id="SVGID_00000023977752190614169830000008085960715598154133_">
					<use xlink:href="#SVGID_1_"  style="overflow:visible;"/>
				</clipPath>
				<polygon style="clip-path:url(#SVGID_00000023977752190614169830000008085960715598154133_);fill:#23A56A;" points="93.6,29.7 
					128,64 128,128 54.4,128 33.3,106.9 				"/>
			</g>
		</g>
		<path class="st3" d="M84,20H36c-2.4,0-4,2.1-4,4.5v78.9c0,2.4,1.6,4.5,4,4.5h56c2.4,0,4-2.1,4-4.5V32.1L84,20z"/>
		<g>
			<g>
				<defs>
					<path id="SVGID_00000032642155763911189430000004262434439226539943_" d="M84,20H36c-2.4,0-4,2.1-4,4.5v78.9
						c0,2.4,1.6,4.5,4,4.5h56c2.4,0,4-2.1,4-4.5V32.1L84,20z"/>
				</defs>
				<clipPath id="SVGID_00000000187463854054847790000009415204335116707513_">
					<use xlink:href="#SVGID_00000032642155763911189430000004262434439226539943_"  style="overflow:visible;"/>
				</clipPath>
				<g style="clip-path:url(#SVGID_00000000187463854054847790000009415204335116707513_);">
					<polygon class="st5" points="50.9,67.6 65.5,82 43,83.1 49.8,90 43,91.1 49.3,97.6 43,99.1 53,109.3 97.7,109.3 97.7,75.7 
						97.1,54.1 81.1,37.8 71,44.9 62.7,35.1 					"/>
				</g>
			</g>
		</g>
		<path class="st6" d="M88.2,32.1l7.8,0L84,20v8C84,30.4,85.8,32.1,88.2,32.1z"/>
		<path class="st7" d="M84,83.5H44c-0.8,0-1.5-0.7-1.5-1.5s0.7-1.5,1.5-1.5h40c0.8,0,1.5,0.7,1.5,1.5S84.8,83.5,84,83.5z"/>
		<path class="st7" d="M84,91.5H44c-0.8,0-1.5-0.7-1.5-1.5s0.7-1.5,1.5-1.5h40c0.8,0,1.5,0.7,1.5,1.5S84.8,91.5,84,91.5z"/>
		<path class="st7" d="M84,99.5H44c-0.8,0-1.5-0.7-1.5-1.5s0.7-1.5,1.5-1.5h40c0.8,0,1.5,0.7,1.5,1.5S84.8,99.5,84,99.5z"/>
		<g>
			<path class="st8" d="M69.6,31.8l-1.3,11.3c2.3,0.9,4.2,2.7,5.1,5.2c0.6,1.6,0.6,3.3,0.3,4.9l10.3,4.9c0.5,0.3,1.2,0,1.3-0.6
				c1.3-4.2,1.3-8.8-0.3-13.3c-2.4-6.7-7.8-11.5-14.2-13.3C70.2,30.9,69.6,31.3,69.6,31.8z"/>
			<path class="st9" d="M66.7,59.9c-3.7,0.7-7.4-1.1-9.2-4.4c-1.1-2-1.3-4.2-0.9-6.2l-10.3-4.9c-0.5-0.3-1.2,0-1.3,0.6
				c-1.3,4.1-1.3,8.7,0.2,13c3.7,10.8,15.6,16.8,26.5,13.2c4.7-1.5,8.4-4.5,10.9-8.3c0.3-0.5,0.1-1.1-0.4-1.4L72,56.7
				C70.8,58.3,68.9,59.5,66.7,59.9z"/>
			<path class="st10" d="M62.2,43.1c0.7-0.3,1.5-0.4,2.2-0.5l1.3-11.3c0.1-0.6-0.4-1.1-1-1.1c-2.2,0-4.5,0.4-6.7,1.2
				c-4.5,1.6-8,4.5-10.5,8.2c-0.3,0.5-0.1,1.1,0.4,1.4l10.3,4.9C59.3,44.7,60.6,43.6,62.2,43.1z"/>
			<g>
				<g>
					<defs>
						<path id="SVGID_00000044178635629231578460000015770705038820330150_" d="M69.7,30.8l-1.4,12.4c2.3,0.9,4.2,2.7,5.1,5.2
							c0.6,1.6,0.6,3.3,0.3,4.9l10.3,4.9c0.5,0.3,1.2,0,1.3-0.6c1.3-4.2,1.3-8.8-0.3-13.3C82.5,37.2,76.5,32.3,69.7,30.8z
							 M66.7,59.9c-3.7,0.7-7.4-1.1-9.2-4.4c-1.1-2-1.3-4.2-0.9-6.2l-10.3-4.9c-0.5-0.3-1.2,0-1.3,0.6c-1.3,4.1-1.3,8.7,0.2,13
							c3.7,10.8,15.6,16.8,26.5,13.2c4.7-1.5,8.4-4.5,10.9-8.3c0.3-0.5,0.1-1.1-0.4-1.4L72,56.7C70.8,58.3,68.9,59.5,66.7,59.9z
							 M62.2,43.1c0.7-0.3,1.5-0.4,2.2-0.5l1.3-11.3c0.1-0.6-0.4-1.1-1-1.1c-2.2,0-4.5,0.4-6.7,1.2c-4.5,1.6-8,4.5-10.5,8.2
							c-0.3,0.5-0.1,1.1,0.4,1.4l10.3,4.9C59.3,44.7,60.6,43.6,62.2,43.1z"/>
					</defs>
					<clipPath id="SVGID_00000026849095518279341360000018304999431780477850_">
						<use xlink:href="#SVGID_00000044178635629231578460000015770705038820330150_"  style="overflow:visible;"/>
					</clipPath>
					
						<circle style="opacity:0.4;clip-path:url(#SVGID_00000026849095518279341360000018304999431780477850_);fill:#FFFFFF;enable-background:new    ;" cx="65.2" cy="51.3" r="12.5"/>
				</g>
			</g>
		</g>
	</g>
</g>
</svg>
