<?xml version="1.0" encoding="utf-8"?>
<!-- Generator: Adobe Illustrator 27.2.0, SVG Export Plug-In . SVG Version: 6.00 Build 0)  -->
<svg version="1.1" id="레이어_1" xmlns="http://www.w3.org/2000/svg" xmlns:xlink="http://www.w3.org/1999/xlink" x="0px"
	 y="0px" viewBox="0 0 128 128" style="enable-background:new 0 0 128 128;" xml:space="preserve">
<style type="text/css">
	.st0{fill:none;}
	.st1{fill:#9359D8;}
	.st2{fill:url(#SVGID_00000128461766232924638890000002655873585295567036_);}
	.st3{fill:#F47521;}
	.st4{fill:url(#SVGID_00000011725077424653517770000006229651072527206315_);}
	.st5{fill:#4FC7EC;}
	.st6{fill:#242238;}
</style>
<g>
	<g>
		<defs>
			<circle id="SVGID_1_" cx="64" cy="64" r="64"/>
		</defs>
		<use xlink:href="#SVGID_1_"  style="overflow:visible;fill:#AA6CE5;"/>
		<clipPath id="SVGID_00000046299776313916553580000015032170468044059308_">
			<use xlink:href="#SVGID_1_"  style="overflow:visible;"/>
		</clipPath>
	</g>
</g>
<path class="st0" d="M25.4,84.3c0-3.7-1.5-7.1-3.8-9.7l12.9-12.9c0.2,0.9,0.3,1.9,0.5,2.8c2.2,10,13.6,12.7,21.7,8.8
	c6.6-3.2,11.9-8.9,16.6-15.2c1.5,1.2,3.4,1.9,5.7,1.9c8.7,0,11.2-9.6,7.5-15.2c8.2-1.7,16-4.8,22-10.6c1.6-1.6,2.7-3.5,3.4-5.5
	l11.3,11.3C113.8,16.5,90.8,0,64,0C28.7,0,0,28.7,0,64c0,26.5,16.1,49.2,39,58.9L14.6,98.5C20.7,96.8,25.4,91,25.4,84.3z"/>
<path class="st1" d="M128,64c0-8.5-1.7-16.7-4.7-24.1L112,28.6c-0.7,2.1-1.8,4-3.4,5.5c-6,5.8-13.8,8.9-22,10.6
	c3.7,5.5,1.2,15.2-7.5,15.2c-2.4,0-4.3-0.7-5.7-1.9c-4.6,6.3-10,12.1-16.6,15.2c-8.1,3.9-19.5,1.2-21.7-8.8
	c-0.2-0.9-0.4-1.8-0.5-2.8L21.6,74.6c2.3,2.6,3.8,6,3.8,9.7c0,6.6-4.7,12.4-10.8,14.2L39,122.9c7.7,3.3,16.1,5.1,25,5.1
	C99.3,128,128,99.3,128,64z"/>
<g id="Layer_1">
</g>
<g>
	<g>
		
			<radialGradient id="SVGID_00000026124223889331257450000003979900270408311183_" cx="73.7228" cy="86.8538" r="48.743" gradientTransform="matrix(1 0 0 -1 0 130)" gradientUnits="userSpaceOnUse">
			<stop  offset="0" style="stop-color:#3C1605;stop-opacity:0.98"/>
			<stop  offset="1" style="stop-color:#1A1107"/>
		</radialGradient>
		
			<rect x="53.4" y="30.2" style="fill:url(#SVGID_00000026124223889331257450000003979900270408311183_);" width="58.2" height="58.2"/>
		<path class="st3" d="M113,89.8H52v-61h61V89.8z M54.8,87h55.4V31.6H54.8V87z"/>
		<rect x="72.8" y="62.1" class="st3" width="11.1" height="5.5"/>
		<rect x="95" y="55.2" class="st3" width="5.5" height="20.8"/>
		<circle id="XMLID_1414_" class="st3" cx="97.7" cy="51" r="2.8"/>
		<polygon class="st3" points="75.4,42.7 64.8,75.9 70.6,75.9 78.3,51.8 86.1,75.9 91.9,75.9 81.3,42.7 		"/>
		
			<linearGradient id="SVGID_00000042710048523052778720000006115531737844202413_" gradientUnits="userSpaceOnUse" x1="45.7824" y1="87.8088" x2="119.215" y2="53.5666" gradientTransform="matrix(1 0 0 -1 0 130)">
			<stop  offset="0" style="stop-color:#FFFFFF;stop-opacity:0.2"/>
			<stop  offset="1" style="stop-color:#FFFFFF;stop-opacity:0"/>
		</linearGradient>
		<path style="fill:url(#SVGID_00000042710048523052778720000006115531737844202413_);" d="M113,89.8H52v-61h61V89.8z"/>
	</g>
	<g id="_x32_3_x2C__Photoshop_x2C__Adobe">
		<g>
			<rect x="15" y="38.2" class="st5" width="61" height="61"/>
			<rect x="17.7" y="40.9" class="st6" width="55.6" height="55.6"/>
			<g>
				<g>
					<g>
						<g id="XMLID_239_">
							<g>
								<path id="XMLID_240_" class="st5" d="M29.8,52.9c0-0.2,0-0.3,0.2-0.3c1.4,0,4.1-0.1,6.8-0.1c7.1,0,9.8,4.1,9.8,9
									c0,6.7-5,9.2-10.3,9.2c-1,0-2,0-2.2,0v9.5c0,0.3-0.1,0.3-0.3,0.3h-3.8c-0.2,0-0.3-0.1-0.3-0.3L29.8,52.9L29.8,52.9z
									 M34.2,66.7c0.3,0,0.8,0.1,2.3,0.1c2.8,0,5.6-0.8,5.6-5c0-3.4-1.8-5.1-5.2-5.1c-1.4,0-2.4,0-2.7,0.1V66.7z"/>
							</g>
						</g>
						<g id="XMLID_236_">
							<g>
								<path id="XMLID_237_" class="st5" d="M55.7,63.5c-1.7,0-2.2,1.1-2.2,1.9c0,1,0.5,1.6,3.1,2.8c3.7,1.8,5.2,3.3,5.2,6.3
									c0,4.2-2.7,6.6-6.6,6.6c-1.9,0-4.2-0.2-5.7-1.3c-0.1-0.1-0.2-0.2-0.2-0.4v-3.9c0-0.2,0.1-0.3,0.2-0.2
									c1.8,1.4,3.9,1.8,5.7,1.8c1.6,0,2.2-1.1,2.2-2c0-1.1-0.4-1.7-2.9-2.9c-3.7-1.8-5.2-3.3-5.2-6.3c0-3.4,2.5-6.2,6.7-6.2
									c2.2,0,3.7,0.1,4.7,0.7c0.2,0.2,0.2,0.3,0.2,0.5v3.4c0,0.3-0.1,0.4-0.3,0.3C59.3,63.8,57.5,63.5,55.7,63.5z"/>
							</g>
						</g>
					</g>
				</g>
			</g>
		</g>
	</g>
</g>
<g id="Layer_1_00000084523543768098863840000005487629392930853774_">
</g>
</svg>
