<?xml version="1.0" encoding="utf-8"?>
<!-- Generator: Adobe Illustrator 27.2.0, SVG Export Plug-In . SVG Version: 6.00 Build 0)  -->
<svg version="1.1" id="레이어_1" xmlns="http://www.w3.org/2000/svg" xmlns:xlink="http://www.w3.org/1999/xlink" x="0px"
	 y="0px" viewBox="0 0 128 128" style="enable-background:new 0 0 128 128;" xml:space="preserve">
<style type="text/css">
	.st0{fill:#37B0F4;}
	.st1{clip-path:url(#SVGID_00000095309211264085976560000013578725962883383437_);fill:#2696DB;}
	.st2{fill:#FFFFFF;}
	.st3{fill:#E1E3E9;}
	.st4{fill:#F24B45;}
	.st5{fill:#FFB202;}
	.st6{fill:#4CBB41;}
	
		.st7{opacity:0.8;clip-path:url(#SVGID_00000013893927573080011120000010036863996446230709_);fill:#E1E3E9;enable-background:new    ;}
	.st8{fill:#53899F;}
</style>
<g id="Layer_2">
	<g>
		<circle class="st0" cx="64" cy="64" r="64"/>
		<g>
			<g>
				<defs>
					<circle id="SVGID_1_" cx="64" cy="64" r="64"/>
				</defs>
				<clipPath id="SVGID_00000015340954850916255870000004856433583306284672_">
					<use xlink:href="#SVGID_1_"  style="overflow:visible;"/>
				</clipPath>
				<polygon style="clip-path:url(#SVGID_00000015340954850916255870000004856433583306284672_);fill:#2696DB;" points="20.2,96.1 
					52,128 128,128 128,52.5 108.1,32.6 				"/>
			</g>
		</g>
		<path class="st2" d="M104.9,96.9H23.1c-2.2,0-4-1.8-4-4V35.1c0-2.2,1.8-4,4-4h81.9c2.2,0,4,1.8,4,4v57.9
			C108.9,95.2,107.2,96.9,104.9,96.9z"/>
		<g>
			<path class="st3" d="M108.9,42.1v-7c0-2.2-1.8-4-4-4H23.1c-2.2,0-4,1.8-4,4v7H108.9z"/>
		</g>
		<circle class="st4" cx="25" cy="36.6" r="3"/>
		<circle class="st5" cx="34" cy="36.6" r="3"/>
		<circle class="st6" cx="43" cy="36.6" r="3"/>
		<g>
			<g>
				<defs>
					<path id="SVGID_00000113331896113015152500000013699338964964967865_" d="M104.9,96.9H23.1c-2.2,0-4-1.8-4-4V35.1
						c0-2.2,1.8-4,4-4h81.9c2.2,0,4,1.8,4,4v57.9C108.9,95.2,107.2,96.9,104.9,96.9z"/>
				</defs>
				<clipPath id="SVGID_00000118363992161710037680000004269550375395741100_">
					<use xlink:href="#SVGID_00000113331896113015152500000013699338964964967865_"  style="overflow:visible;"/>
				</clipPath>
				
					<polygon style="opacity:0.8;clip-path:url(#SVGID_00000118363992161710037680000004269550375395741100_);fill:#E1E3E9;enable-background:new    ;" points="
					30.9,70.9 57.4,97.5 110,97.5 110,79.6 97.1,66.7 84.5,63.7 71.8,51.1 64.4,67.2 53.5,56.3 31.9,68.8 				"/>
			</g>
		</g>
		<g>
			<path class="st8" d="M30.9,66.8l22.6-10.5v5l-17.1,7.5v0.1l17.1,7.5v5L30.9,70.9V66.8z"/>
			<path class="st8" d="M57,85.2L67,51.1h4.8L61.7,85.2H57z"/>
			<path class="st8" d="M97.1,71L74.5,81.4v-5L92,68.9v-0.1l-17.5-7.5v-5l22.6,10.4L97.1,71L97.1,71z"/>
		</g>
	</g>
</g>
</svg>
