<?xml version="1.0" encoding="utf-8"?>
<!-- Generator: Adobe Illustrator 27.2.0, SVG Export Plug-In . SVG Version: 6.00 Build 0)  -->
<svg version="1.1" id="레이어_1" xmlns="http://www.w3.org/2000/svg" xmlns:xlink="http://www.w3.org/1999/xlink" x="0px"
	 y="0px" viewBox="0 0 128 128" style="enable-background:new 0 0 128 128;" xml:space="preserve">
<style type="text/css">
	.st0{fill:#F7827C;}
	.st1{fill:#EF7673;}
	.st2{fill:#FFFFFF;}
	.st3{fill:#97B9DD;}
	.st4{fill:#B3B4B7;}
	.st5{opacity:0.1;fill:#FFFFFF;enable-background:new    ;}
	.st6{opacity:0.1;fill:#231F20;enable-background:new    ;}
	.st7{fill:#FFD900;}
	.st8{fill:#44E2C7;}
	.st9{fill:#F985E8;}
	.st10{fill:#23E523;}
</style>
<g>
	<circle class="st0" cx="63.5" cy="64" r="64"/>
</g>
<path class="st1" d="M127.5,64c0-0.9,0-1.9-0.1-2.8l-43-39.6c-0.5,4.6-2.9,8.9-7.1,10.8c-3.8,1.7-7.6,2.6-11.5,4
	c-0.1,0.1-0.4,0.2-0.8,0.5c0.6-0.3,0.3,0-0.8,0.9c-0.5,0.6-0.9,1-1,1.1c-0.5,0.7-0.9,1.4-1.4,2.1c-4.2,6.6-8.7,13.2-12.7,20
	c-0.4,0.8-0.6,1.2-0.6,1.3c-0.3,0.7-0.5,1.4-0.8,2.2c-0.2,0.5-1,4.6-1,4.2c-0.3,2.7-0.2,5.4-0.4,8.1c-0.3,3.6-1.2,6.8-2.6,9.7
	c3.2,5.5,1.7,13.7-2.6,17.9c-0.6,0.6-1.3,1.2-2,1.6l23.8,22c0.1,0,0.2,0,0.3,0C98.8,128,127.5,99.3,127.5,64z"/>
<g>
	<g>
		<path class="st2" d="M84.2,107.7c3.5,0,6.4-2.9,6.4-6.4V26.6c0-3.5-2.9-6.4-6.4-6.4H43.8c-3.5,0-6.4,2.9-6.4,6.4v74.7
			c0,3.5,2.9,6.4,6.4,6.4H84.2z"/>
	</g>
	<g>
		<rect x="37.4" y="33" class="st3" width="53.2" height="58.5"/>
	</g>
	<g>
		<path class="st4" d="M64,103.9c-2.4,0-4.2-1.8-4.2-4.2s1.8-4.2,4.2-4.2s4.2,1.8,4.2,4.2S66.4,103.9,64,103.9z M64,96.6
			c-1.6,0-2.9,1.3-2.9,2.9s1.3,2.9,2.9,2.9c1.6,0,2.9-1.3,2.9-2.9S65.6,96.6,64,96.6z"/>
	</g>
	<g>
		<path class="st4" d="M72.7,25.9H60.9c-0.4,0-0.5,0.4-0.5,0.5c0,0.4,0.4,0.5,0.5,0.5h11.8c0.4,0,0.5-0.4,0.5-0.5
			C73.3,26.3,73.1,25.9,72.7,25.9z"/>
		<path class="st4" d="M58.4,25.9h-3.1c-0.4,0-0.5,0.4-0.5,0.5c0,0.4,0.4,0.5,0.5,0.5h2.9c0.4,0,0.5-0.4,0.5-0.5
			C58.9,26.3,58.7,25.9,58.4,25.9z"/>
	</g>
	<path class="st5" d="M41.2,101.4V26.6c0-3.5,2.9-6.4,6.4-6.4h-3.8c-3.5,0-6.4,2.9-6.4,6.4v74.7c0,3.5,2.9,6.4,6.4,6.4h3.8
		C44.1,107.7,41.2,104.8,41.2,101.4z"/>
	<path class="st6" d="M86.8,26.6v74.7c0,3.5-2.9,6.4-6.4,6.4h3.8c3.5,0,6.4-2.9,6.4-6.4V26.6c0-3.5-2.9-6.4-6.4-6.4h-3.8
		C83.9,20.3,86.8,23.2,86.8,26.6z"/>
	<g>
		<path class="st7" d="M49,44h9.9c1.8,0,3.2,1.4,3.2,3.2v9.9c0,1.8-1.4,3.2-3.2,3.2H49c-1.8,0-3.2-1.4-3.2-3.2v-9.9
			C45.8,45.4,47.2,44,49,44z"/>
		<path class="st8" d="M48.5,64.2h11c1.5,0,2.7,1.2,2.7,2.7v11c0,1.5-1.2,2.7-2.7,2.7h-11c-1.5,0-2.7-1.2-2.7-2.7v-11
			C45.8,65.4,47,64.2,48.5,64.2z"/>
		<path class="st9" d="M69.6,44h9.2c2,0,3.6,1.6,3.6,3.6v9.2c0,2-1.6,3.6-3.6,3.6h-9.2c-2,0-3.6-1.6-3.6-3.6v-9.2
			C66,45.6,67.6,44,69.6,44z"/>
		<path class="st10" d="M69.2,64.2h10.1c1.7,0,3.2,1.4,3.2,3.2v10.1c0,1.7-1.4,3.2-3.2,3.2H69.2c-1.7,0-3.2-1.4-3.2-3.2V67.3
			C66,65.6,67.4,64.2,69.2,64.2z"/>
	</g>
</g>
</svg>
