<?xml version="1.0" encoding="utf-8"?>
<!-- Generator: Adobe Illustrator 27.2.0, SVG Export Plug-In . SVG Version: 6.00 Build 0)  -->
<svg version="1.1" id="레이어_1" xmlns="http://www.w3.org/2000/svg" xmlns:xlink="http://www.w3.org/1999/xlink" x="0px"
	 y="0px" viewBox="0 0 128 128" style="enable-background:new 0 0 128 128;" xml:space="preserve">
<style type="text/css">
	.st0{fill:#7F96AD;}
	.st1{fill:#6E8699;}
	.st2{fill:#EA77FF;}
	.st3{fill:#2A0034;}
</style>
<circle class="st0" cx="64" cy="64" r="64"/>
<path class="st1" d="M127.9,66.2l-26.1-39.6L38.3,68.4c2.8,2.2,4.5,5.9,3.4,9.8c-1.7,6-4.9,11.1-10,14.3c-1.4,2.5-2.8,4.9-4.3,7.3
	c-0.3,0.4-0.6,0.8-1,1.2l15,22.8c7,2.7,14.6,4.1,22.6,4.1C98.6,128,126.8,100.5,127.9,66.2z"/>
<g>
	<g>
		<defs>
			<circle id="SVGID_1_" cx="64" cy="64" r="64"/>
		</defs>
		<clipPath id="SVGID_00000100381209711882223840000004562838228395533700_">
			<use xlink:href="#SVGID_1_"  style="overflow:visible;"/>
		</clipPath>
	</g>
</g>
<g id="_x38__x2C__Premier_Pro_x2C__Adobe">
	<g>
		<rect x="25.2" y="25.2" class="st2" width="77.5" height="77.5"/>
		<rect x="28.7" y="28.7" class="st3" width="70.7" height="70.7"/>
		<g>
			<g>
				<g>
					<g id="XMLID_269_">
						<g>
							<path id="XMLID_270_" class="st2" d="M45.5,44.1c0-0.3,0-0.4,0.3-0.4c1.7-0.1,5.2-0.1,8.7-0.1c9,0,12.4,5.2,12.5,11.4
								c0,8.5-6.3,11.7-13.1,11.7c-1.3,0-2.5,0-2.8,0v12.1c0,0.3-0.1,0.4-0.3,0.4h-4.9c-0.2,0-0.3-0.1-0.3-0.4L45.5,44.1L45.5,44.1z
								 M51,61.6c0.4,0.1,1.1,0.1,3,0.1c3.6,0,7.1-1,7.1-6.4c0-4.3-2.3-6.5-6.6-6.5c-1.8,0-3.1,0.1-3.4,0.1V61.6z"/>
						</g>
					</g>
					<g id="XMLID_265_">
						<g>
							<path id="XMLID_267_" class="st2" d="M83.2,52.5c0.2,0,0.4,0,0.6,0.1c0.2,0.1,0.3,0.1,0.3,0.5v4.6c0,0.3-0.1,0.4-0.4,0.4
								c-2.7-0.1-4-0.2-6,0.6v20.1c0,0.3-0.1,0.4-0.4,0.4h-5c-0.3,0-0.4-0.1-0.4-0.4v-18c0-2.3-0.1-4.1-0.2-5.9c0-0.2,0-0.3,0.3-0.3
								C71.9,54.5,76.6,52.8,83.2,52.5z"/>
						</g>
					</g>
				</g>
			</g>
		</g>
	</g>
</g>
<g id="Layer_1">
</g>
</svg>
