<?xml version="1.0" encoding="utf-8"?>
<!-- Generator: Adobe Illustrator 27.2.0, SVG Export Plug-In . SVG Version: 6.00 Build 0)  -->
<svg version="1.1" id="레이어_1" xmlns="http://www.w3.org/2000/svg" xmlns:xlink="http://www.w3.org/1999/xlink" x="0px"
	 y="0px" viewBox="0 0 128 128" style="enable-background:new 0 0 128 128;" xml:space="preserve">
<style type="text/css">
	.st0{fill:#F4BC1E;}
	.st1{fill:#F1B52F;}
	.st2{fill:#1F62AE;}
	.st3{fill:#347DC6;}
	.st4{fill:#FFFFFF;}
	.st5{fill:#E44D26;}
	.st6{fill:#FF6C39;}
</style>
<g>
	<circle class="st0" cx="63.5" cy="64" r="64"/>
</g>
<path class="st1" d="M127,71.5l-25.2-33.2L28.2,94.1l25,33c3.3,0.5,6.8,0.8,10.3,0.8C96.3,128,123.3,103.3,127,71.5z"/>
<g>
	<g>
		<polygon class="st2" points="103.4,87.4 81.1,93.5 58.7,87.4 53.6,30.6 108.6,30.6 		"/>
		<polygon class="st3" points="81.1,34.5 81.1,89 99.2,83.7 104,34.5 		"/>
		<polygon class="st4" points="97.5,42.4 64.6,42.4 65.4,50.3 81.1,50.3 65.9,56.1 66.6,64 87.9,64 87.3,71.9 81.1,73.8 74.9,71.8 
			74.3,67.9 66.9,67.9 67.8,77.7 81.1,81.7 94.3,77.7 96.2,56.1 81.1,56.1 96.8,50.3 		"/>
	</g>
	<g>
		<polygon class="st5" points="69.3,99.3 46.9,105.4 24.6,99.3 19.4,42.5 74.4,42.5 		"/>
		<polygon class="st6" points="46.9,46.5 46.9,101 65.1,95.6 69.9,46.5 		"/>
		<polygon class="st4" points="63.3,54.3 30.4,54.3 31.2,62.2 32.4,75.9 53.8,75.9 53.1,83.7 46.9,85.7 40.8,83.7 40.3,79.8 
			32.8,79.8 33.7,89.6 46.9,93.6 60.1,89.6 62.1,68.1 39.6,68.1 39.1,62.2 62.6,62.2 		"/>
	</g>
</g>
</svg>
