<?xml version="1.0" encoding="utf-8"?>
<!-- Generator: Adobe Illustrator 27.2.0, SVG Export Plug-In . SVG Version: 6.00 Build 0)  -->
<svg version="1.1" id="레이어_1" xmlns="http://www.w3.org/2000/svg" xmlns:xlink="http://www.w3.org/1999/xlink" x="0px"
	 y="0px" viewBox="0 0 128 128" style="enable-background:new 0 0 128 128;" xml:space="preserve">
<style type="text/css">
	.st0{fill:#DD4A8C;}
	.st1{clip-path:url(#SVGID_00000074420439502320252110000004113845092529884544_);fill:#DB3589;}
	.st2{fill:#2980B9;}
	.st3{fill:#ECF0F1;}
	.st4{fill:#2ECC71;}
	.st5{fill:#E7DC3C;}
	.st6{fill:#F1C40F;}
	.st7{fill:#8ED0AD;}
	.st8{fill:#3498DB;}
	.st9{fill:#95A5A6;}
	.st10{fill:#495260;}
</style>
<circle class="st0" cx="64" cy="64" r="64"/>
<g>
	<g>
		<defs>
			<circle id="SVGID_1_" cx="64" cy="64" r="64"/>
		</defs>
		<clipPath id="SVGID_00000073722072403965114690000005011582792830240930_">
			<use xlink:href="#SVGID_1_"  style="overflow:visible;"/>
		</clipPath>
		<polygon style="clip-path:url(#SVGID_00000073722072403965114690000005011582792830240930_);fill:#DB3589;" points="93.6,29.7 
			128,64 128,128 54.4,128 33.3,106.9 		"/>
	</g>
</g>
<g>
	<g>
		<path class="st2" d="M38.7,22.4c-4,0-7.2,3.3-7.2,7.2v3.6v25.3v3.6V73v3.6v18.1v3.6c0,4,3.2,7.2,7.2,7.2h50.7c4,0,7.2-3.3,7.2-7.2
			v-3.6V76.7V62.2V47.7v-3.6V33.2v-3.6c0-4-3.2-7.2-7.2-7.2H74.9H38.7z"/>
		<path class="st3" d="M42.3,22.4c-4,0-7.2,3.3-7.2,7.2v28.9V73v21.7c0,4,3.2,7.2,7.2,7.2h28.9h14.5c4,0,7.2-3.3,7.2-7.2V73V58.6
			V44.1V29.6c0-4-3.2-7.2-7.2-7.2H71.2H42.3z"/>
		<path class="st4" d="M74.9,73v3.6v3.6v3.6v14.5h14.5c4,0,7.2-3.3,7.2-7.2v-7.2v-7.2V73H74.9z"/>
		<path class="st5" d="M74.9,55v3.6v3.6v3.6v14.5h14.5c4,0,7.2-3.3,7.2-7.2v-7.2v-7.2V55H74.9z"/>
		<path class="st6" d="M74.9,36.9v3.6v3.6v3.6v14.5h14.5c4,0,7.2-3.3,7.2-7.2v-7.2v-7.2v-3.6H74.9z"/>
		<path class="st7" d="M74.9,22.4v7.2h14.5v7.2v7.2c4,0,7.2-3.2,7.2-7.2v-7.2c0-4-3.2-7.2-7.2-7.2H74.9z"/>
		<path class="st8" d="M38.7,22.4c-4,0-7.2,3.3-7.2,7.2v28.9V73v18.1h3.6v3.6v10.9c0-4,3.2-7.2,7.2-7.2h28.9h3.6h4.6h2.6h1
			c2.7,0,5-1.4,6.2-3.6v-3.6V73V58.6V44.1V29.6c0-4-3.2-7.2-7.2-7.2H67.6H38.7z"/>
	</g>
	<path class="st9" d="M31.4,29.6v3.6h3.6v-3.6H31.4z M31.4,40.5v3.6h3.6v-3.6H31.4z M31.4,51.3V55h3.6v-3.6H31.4z M31.4,62.2v3.6
		h3.6v-3.6H31.4z M31.4,73v3.6h3.6V73H31.4z M31.4,83.9v3.6h3.6v-3.6H31.4z"/>
</g>
<path class="st10" d="M81.2,42.2h-40c-0.8,0-1.5-0.7-1.5-1.5s0.7-1.5,1.5-1.5h40c0.8,0,1.5,0.7,1.5,1.5S82,42.2,81.2,42.2z"/>
</svg>
