<?xml version="1.0" encoding="utf-8"?>
<!-- Generator: Adobe Illustrator 27.1.1, SVG Export Plug-In . SVG Version: 6.00 Build 0)  -->
<svg version="1.1" id="레이어_1" xmlns="http://www.w3.org/2000/svg" xmlns:xlink="http://www.w3.org/1999/xlink" x="0px"
	 y="0px" viewBox="0 0 74 61.8" style="enable-background:new 0 0 74 61.8;" xml:space="preserve">
<style type="text/css">
	.st0{fill:none;}
	.st1{fill:#FDB515;}
	.st2{fill:#466AA9;}
</style>
<path class="st0" d="M50.4,12.5c-1-0.4-1.6-1.3-2.3-2c0,0-0.6-1.3-2.5-0.9c0,0-0.7,2.6,0.4,3.9c0.5,0.9,1.4,1.9,2.4,2.2
	c0.7,0.2,1.2,0,1.6-0.3C50.8,14.5,50.9,12.7,50.4,12.5z"/>
<path class="st1" d="M63.3,50.2c-0.1-0.1-0.2-0.2-0.2-0.3c-2.7-3.1-6.3-6.2-10.1-8.5c-4.1-2.1-9.2-4-12.1-5.1v0.1
	C26,32.2,3.7,28.7,0,14.6c3.9,14.9,16.6,25.5,29.4,32.8C34.2,50.1,70,69.3,74,58.6C73,61.4,64.1,51,63.3,50.2z"/>
<path class="st2" d="M52.2,40.8c0.9-0.9,1.9-1.7,1.5-2.8c0.5-0.1,5.5-2,5.4-2.2c-0.6-0.9-1.3-2-2-2.7c-0.8-2.6-2.9-4.4-4-6.7
	c-1.2-2.6-0.3-4.8,0.3-7.7c0.3-1.4,0-3.9,1.2-4.9c0.1-0.1,0.1-0.2,0.2-0.2c0.5,1.2,1.8,1.7,3,1.3c-0.6-1.3-0.9-2.8-0.8-4.3
	c-0.1-1.9,0.2-3.9-1.4-5.4c-2.4-2.2-7.1,2.2-7.3,2.3c-2,1.9-5.6,0.2-7.5-1c-1.2-0.8-2.3-1.7-2.9-3c-0.5-1.1-0.2-2.7-1.4-3.5
	c-1.5,2.3-4.3,8.2-2,10.5c1.6-1.5,1.5-2.6,4-2.8c1.2-0.1,3.4,0,4.2,1.2c0.4,0.6,0.3,2,0.5,2.8c0.5,2.1,1.5,4.9,3.8,5.7v0.1
	c0.2,0.1,0.4,0.3,0.6,0.5c0.9,1.3,0.9,2.5,0.3,3.6c-0.1,1.6-2.1,4.4-2.1,4.4c-3.3,2.4-4.5,8.3-4.8,10.2c2.9,1.1,8,3,12.1,5.1
	C52.7,41.2,52.4,41,52.2,40.8z M50,15.3c-0.4,0.4-0.9,0.5-1.6,0.3c-1-0.3-1.9-1.4-2.4-2.2c-1.1-1.2-0.4-3.9-0.4-3.9
	c1.9-0.4,2.5,0.9,2.5,0.9c0.7,0.7,1.3,1.7,2.3,2C50.9,12.7,50.8,14.5,50,15.3z"/>
</svg>
