<?xml version="1.0" encoding="utf-8"?>
<!-- Generator: Adobe Illustrator 27.1.1, SVG Export Plug-In . SVG Version: 6.00 Build 0)  -->
<svg version="1.1" id="레이어_1" xmlns="http://www.w3.org/2000/svg" xmlns:xlink="http://www.w3.org/1999/xlink" x="0px"
	 y="0px" viewBox="0 0 217.7 45.3" style="enable-background:new 0 0 217.7 45.3;" xml:space="preserve">
<style type="text/css">
	.st0{fill:none;}
	.st1{fill:#FDB515;}
	.st2{fill:#4C6AA5;}
	.st3{fill:#243A5E;}
	.st4{fill:none;stroke:#243A5E;stroke-miterlimit:10;}
</style>
<path class="st0" d="M109.9,13.6c-0.5-0.2-0.9-0.7-1.2-1.1c0,0-0.3-0.7-1.3-0.5c0,0-0.4,1.4,0.2,2.1c0.3,0.5,0.7,1,1.3,1.2
	c0.4,0.1,0.6,0,0.9-0.2C110.1,14.7,110.2,13.7,109.9,13.6z"/>
<path class="st1" d="M120.8,33.7c-0.1-0.1-0.1-0.1-0.1-0.2c-1.4-1.6-3.3-3.3-5.4-4.5c-2.2-1.1-4.9-2.1-6.4-2.7v0.1
	c-7.9-2.2-19.8-4.1-21.7-11.6c2.1,7.9,8.8,13.6,15.6,17.4c2.6,1.4,21.6,11.6,23.7,6C125.9,39.6,121.2,34.1,120.8,33.7z"/>
<path class="st2" d="M114.9,28.7c0.5-0.5,1-0.9,0.8-1.5c0.3-0.1,2.9-1.1,2.9-1.2c-0.3-0.5-0.7-1.1-1.1-1.4c-0.4-1.4-1.5-2.3-2.1-3.6
	c-0.6-1.4-0.2-2.6,0.2-4.1c0.2-0.7,0-2.1,0.6-2.6c0.1-0.1,0.1-0.1,0.1-0.1c0.3,0.6,1,0.9,1.6,0.7c-0.3-0.7-0.5-1.5-0.4-2.3
	c-0.1-1,0.1-2.1-0.7-2.9c-1.3-1.2-3.8,1.2-3.9,1.2c-1.1,1-3,0.1-4-0.5c-0.6-0.4-1.2-0.9-1.5-1.6c-0.3-0.6-0.1-1.4-0.7-1.9
	c-0.8,1.2-2.3,4.4-1.1,5.6c0.9-0.8,0.8-1.4,2.1-1.5c0.6-0.1,1.8,0,2.2,0.6c0.2,0.3,0.2,1.1,0.3,1.5c0.3,1.1,0.8,2.6,2,3v0.1
	c0.1,0.1,0.2,0.2,0.3,0.3c0.5,0.7,0.5,1.3,0.2,1.9c-0.1,0.9-1.1,2.3-1.1,2.3c-1.8,1.3-2.4,4.4-2.6,5.4c1.5,0.6,4.3,1.6,6.4,2.7
	C115.1,28.9,115,28.8,114.9,28.7z M113.7,15.1c-0.2,0.2-0.5,0.3-0.9,0.2c-0.5-0.2-1-0.7-1.3-1.2c-0.6-0.6-0.2-2.1-0.2-2.1
	c1-0.2,1.3,0.5,1.3,0.5c0.4,0.4,0.7,0.9,1.2,1.1C114.2,13.7,114.1,14.7,113.7,15.1z"/>
<text transform="matrix(1 0 0 1 -49.77 595.2758)"><tspan x="0" y="0" style="font-family:'AdobeMyungjoStd-Medium-KSCpc-EUC-H'; font-size:12px;">.navbar .navbar-brand-wrapper .navbar-brand img {</tspan><tspan x="0" y="14.4" style="font-family:'AdobeMyungjoStd-Medium-KSCpc-EUC-H'; font-size:12px;">    width: calc(260px - 84px);</tspan><tspan x="0" y="28.8" style="font-family:'AdobeMyungjoStd-Medium-KSCpc-EUC-H'; font-size:12px;">    max-width: 100%;</tspan><tspan x="0" y="43.2" style="font-family:'AdobeMyungjoStd-Medium-KSCpc-EUC-H'; font-size:12px;">    height: 46px;</tspan><tspan x="0" y="57.6" style="font-family:'AdobeMyungjoStd-Medium-KSCpc-EUC-H'; font-size:12px;">    margin: auto;</tspan><tspan x="0" y="72" style="font-family:'AdobeMyungjoStd-Medium-KSCpc-EUC-H'; font-size:12px;">    vertical-align: middle;</tspan><tspan x="0" y="86.4" style="font-family:'AdobeMyungjoStd-Medium-KSCpc-EUC-H'; font-size:12px;">}</tspan></text>
<g>
	<g>
		<g>
			<path class="st3" d="M146.9,22.6c0,0.9-0.2,1.7-0.7,2.4s-1,1.2-1.8,1.7c-0.6,0.4-1.3,0.7-2.1,0.8s-1.6,0.3-2.6,0.3
				c-0.4,0-0.7,0-1.1,0c-0.3,0-0.5,0-0.6,0c0,0,0-0.6,0-1.8s0-2.3,0-3.3c0-0.6,0-1.3,0-2.1s0-1.9,0-3.2c0.1,0,0.3,0,0.7,0
				c0.4,0,0.7,0,0.7,0c1.1,0,2,0.1,2.9,0.3s1.6,0.5,2.2,0.9c0.8,0.5,1.3,1.1,1.7,1.7C146.8,20.9,146.9,21.7,146.9,22.6z M145.6,22.6
				c0-0.7-0.1-1.3-0.4-1.8c-0.3-0.6-0.8-1-1.4-1.4c-0.6-0.4-1.2-0.6-2-0.8c-0.7-0.1-1.4-0.2-1.9-0.2c-0.1,0-0.2,0-0.2,0
				c-0.1,0-0.1,0-0.2,0c0,0.8,0,1.5,0,2s0,1,0,1.3c0,0.2,0,0.8,0,1.6s0,2,0,3.5c0.1,0,0.1,0,0.2,0c0.1,0,0.1,0,0.2,0
				c0.7,0,1.4-0.1,2-0.2c0.7-0.2,1.3-0.4,1.7-0.7c0.6-0.4,1.1-0.8,1.4-1.3C145.4,24,145.6,23.4,145.6,22.6z"/>
			<path class="st3" d="M155.6,23.6h-5.6c0,0.6,0.1,1.1,0.4,1.5s0.6,0.8,1.1,1.1c0.3,0.2,0.6,0.3,1,0.4s0.8,0.1,1.4,0.1
				c0.3,0,0.6,0,0.8,0s0.4,0,0.5,0l-0.1,1c0,0-0.2,0-0.4,0s-0.5,0-0.8,0c-0.8,0-1.6-0.1-2.2-0.3s-1.1-0.5-1.5-0.9
				c-0.3-0.3-0.6-0.7-0.9-1.2s-0.4-1-0.4-1.6c0-0.6,0.1-1.1,0.3-1.6s0.4-0.9,0.8-1.3c0.3-0.4,0.7-0.6,1.1-0.8s0.9-0.3,1.4-0.3
				c0.5,0,0.9,0.1,1.3,0.2s0.7,0.4,1,0.7c0.3,0.3,0.5,0.7,0.7,1.2S155.6,22.9,155.6,23.6z M154.4,22.7c-0.1-0.6-0.3-1.2-0.7-1.5
				s-0.8-0.6-1.4-0.6s-1.1,0.2-1.5,0.6s-0.7,0.9-0.8,1.5H154.4z"/>
			<path class="st3" d="M162,25.5c0,0.4-0.1,0.7-0.3,1c-0.2,0.3-0.4,0.5-0.7,0.7c-0.3,0.2-0.7,0.3-1.1,0.4s-0.9,0.2-1.4,0.2
				c-0.3,0-0.5,0-0.8,0c-0.3,0-0.4,0-0.5,0l0-1c0,0,0.2,0,0.5,0s0.6,0,0.9,0c0.2,0,0.4,0,0.7,0s0.5-0.1,0.7-0.2
				c0.3-0.1,0.5-0.3,0.6-0.4s0.2-0.4,0.2-0.6c0-0.2-0.1-0.4-0.2-0.5s-0.3-0.3-0.5-0.4c-0.2-0.1-0.5-0.3-0.9-0.4s-0.7-0.3-0.9-0.5
				c-0.3-0.2-0.6-0.5-0.8-0.8s-0.3-0.6-0.3-1s0.1-0.7,0.3-1c0.2-0.3,0.5-0.6,0.8-0.7c0.3-0.2,0.6-0.3,1-0.3s0.7-0.1,1.1-0.1
				c0.3,0,0.6,0,0.8,0c0.2,0,0.3,0,0.4,0l0.1,1c0,0-0.2,0-0.5,0c-0.3,0-0.6,0-0.9,0c-0.2,0-0.5,0-0.7,0.1s-0.4,0.1-0.6,0.2
				c-0.2,0.1-0.4,0.3-0.5,0.4s-0.1,0.3-0.1,0.5c0,0.2,0.1,0.4,0.2,0.5c0.1,0.2,0.3,0.3,0.5,0.4c0.2,0.1,0.5,0.3,0.9,0.4
				c0.4,0.2,0.6,0.3,0.8,0.4c0.4,0.2,0.6,0.5,0.8,0.8S162,25.1,162,25.5z"/>
			<path class="st3" d="M165.5,18.4h-1.4V17h1.4V18.4z M165.5,27.8h-1.2c0-0.1,0-0.6,0-1.5s0-1.7,0-2.3c0-0.5,0-1.1,0-1.8
				s0-1.4,0-2.3h1.2c0,0.8,0,1.5,0,2.1s0,1.2,0,1.7c0,1.2,0,2.2,0,2.9S165.5,27.8,165.5,27.8z"/>
			<path class="st3" d="M174.4,19.8c0,0.1,0,0.6,0,1.5s0,1.8,0,2.6c0,0.6,0,1.1,0,1.7s0,1.1,0,1.6c0,0.9-0.2,1.6-0.5,2.1
				s-0.7,0.9-1.3,1.2c-0.4,0.2-1,0.4-1.6,0.5s-1.4,0.2-2.3,0.2l-0.1-1c0.6,0,1.2,0,1.6-0.1s0.9-0.2,1.3-0.3c0.6-0.2,1-0.5,1.3-0.9
				s0.4-0.8,0.4-1.4c-0.1,0-0.1,0-0.2,0s-0.1,0-0.2,0c-0.6,0-1.3-0.1-1.9-0.2s-1.2-0.4-1.7-0.7c-0.5-0.3-0.8-0.7-1.1-1.2
				s-0.4-1.1-0.4-1.8s0.2-1.4,0.6-1.9s0.9-1,1.6-1.3c0.5-0.2,1-0.4,1.6-0.5s1.2-0.1,2.1-0.1c0.1,0,0.3,0,0.4,0
				S174.2,19.8,174.4,19.8z M173.2,24c0-0.4,0-0.8,0-1.4c0-0.6,0-1.1,0-1.8c0,0-0.1,0-0.1,0s-0.1,0-0.1,0c-0.5,0-0.9,0-1.3,0.1
				s-0.7,0.2-1.1,0.4c-0.5,0.2-0.9,0.6-1.2,1s-0.4,0.9-0.4,1.5c0,0.6,0.1,1.1,0.4,1.5s0.7,0.7,1.1,0.9c0.3,0.2,0.7,0.3,1.1,0.4
				s0.9,0.1,1.3,0.1c0.1,0,0.1,0,0.2,0s0.1,0,0.1,0c0-0.1,0-0.4,0-0.9S173.2,24.7,173.2,24z"/>
			<path class="st3" d="M183.7,27.8h-1.2c0-0.1,0-0.6,0-1.4s0-1.3,0-1.5c0-0.3,0-0.7,0-1.2s0-0.9,0-1.2c0-0.6-0.1-1-0.3-1.3
				s-0.6-0.4-1.1-0.4c-0.3,0-0.7,0.1-1.2,0.3s-0.9,0.4-1.4,0.7c0,0.1,0,0.4,0,0.9s0,1.1,0,1.5c0,0.6,0,1.3,0,2.2s0,1.3,0,1.3h-1.2
				c0,0,0-0.4,0-1s0-1.5,0-2.7c0-0.5,0-1.2,0-1.9s0-1.5,0-2.3h1.2l0,0.9l0,0c0.7-0.4,1.3-0.7,1.8-0.9s0.9-0.2,1.2-0.2
				c0.7,0,1.2,0.2,1.6,0.6s0.6,1,0.6,1.7c0,0.7,0,1.2,0,1.7s0,0.9,0,1.2c0,0.5,0,1.1,0,1.8S183.7,27.8,183.7,27.8z"/>
		</g>
	</g>
</g>
<g>
	<g>
		<g>
			<path class="st3" d="M44.1,27.8h-1.3c0-0.3,0-0.9,0-1.7s0-1.9,0-3.1c-0.1,0-0.5,0-1.4,0s-1.5,0-1.9,0c-0.5,0-1.1,0-1.9,0
				s-1.1,0-1.2,0c0,1.4,0,2.5,0,3.3s0,1.3,0,1.6h-1.3c0-0.3,0-0.9,0-1.7s0-2.1,0-4c0-0.6,0-1.3,0-2.1s0-1.7,0-2.7h1.3
				c0,0.8,0,1.6,0,2.3s0,1.5,0,2.2c0.1,0,0.4,0,1,0s1.3,0,2,0c0.6,0,1.2,0,2,0s1.2,0,1.3,0c0-0.7,0-1.4,0-2.2s0-1.5,0-2.3h1.3
				c0,0.8,0,1.7,0,2.7s0,1.9,0,2.5c0,1.5,0,2.7,0,3.5S44.1,27.5,44.1,27.8z"/>
			<path class="st3" d="M52.8,23.3c0,1.3,0,2.3,0,3.2s0,1.2,0,1.3c-0.1,0-0.3,0-0.7,0.1s-1,0.1-1.7,0.1c-0.4,0-0.9,0-1.3-0.1
				s-0.8-0.2-1.1-0.3c-0.4-0.2-0.8-0.5-1-0.8s-0.4-0.7-0.4-1.2c0-0.5,0.2-0.9,0.5-1.3s0.7-0.7,1.3-0.9c0.3-0.1,0.8-0.3,1.4-0.4
				s1.2-0.2,1.9-0.3c0-0.4-0.1-0.7-0.3-1s-0.4-0.5-0.8-0.6c-0.2-0.1-0.5-0.2-0.8-0.2s-0.6-0.1-1-0.1c-0.2,0-0.4,0-0.6,0
				s-0.4,0-0.7,0l0.1-1c0.1,0,0.2,0,0.5,0s0.5,0,0.9,0c0.6,0,1.2,0.1,1.6,0.2s0.9,0.3,1.2,0.6c0.3,0.3,0.5,0.6,0.7,1
				S52.8,22.6,52.8,23.3z M51.6,25.2c0-0.2,0-0.4,0-0.7s0-0.6,0-0.9c-0.2,0-0.6,0.1-1.2,0.1s-1.1,0.2-1.4,0.3
				c-0.3,0.1-0.6,0.3-0.8,0.5s-0.3,0.5-0.3,0.8c0,0.4,0.1,0.6,0.3,0.9s0.5,0.4,0.8,0.5c0.3,0.1,0.5,0.2,0.8,0.2s0.6,0.1,1,0.1
				c0.1,0,0.2,0,0.4,0s0.3,0,0.5,0c0,0,0-0.2,0-0.5S51.6,25.7,51.6,25.2z"/>
			<path class="st3" d="M62.1,27.8h-1.2c0-0.1,0-0.6,0-1.4s0-1.3,0-1.5c0-0.3,0-0.7,0-1.2s0-0.9,0-1.2c0-0.6-0.1-1-0.3-1.3
				s-0.6-0.4-1.1-0.4c-0.3,0-0.7,0.1-1.2,0.3s-0.9,0.4-1.4,0.7c0,0.1,0,0.4,0,0.9s0,1.1,0,1.5c0,0.6,0,1.3,0,2.2s0,1.3,0,1.3h-1.2
				c0,0,0-0.4,0-1s0-1.5,0-2.7c0-0.5,0-1.2,0-1.9s0-1.5,0-2.3h1.2l0,0.9l0,0c0.7-0.4,1.3-0.7,1.8-0.9s0.9-0.2,1.2-0.2
				c0.7,0,1.2,0.2,1.6,0.6s0.6,1,0.6,1.7c0,0.7,0,1.2,0,1.7s0,0.9,0,1.2c0,0.5,0,1.1,0,1.8S62.1,27.8,62.1,27.8z"/>
			<path class="st3" d="M71.4,27.8h-1.2c0-0.1,0-0.6,0-1.4s0-1.3,0-1.5c0-0.3,0-0.7,0-1.2s0-0.9,0-1.2c0-0.6-0.1-1-0.3-1.3
				s-0.6-0.4-1.1-0.4c-0.3,0-0.7,0.1-1.2,0.3s-0.9,0.4-1.4,0.7c0,0.1,0,0.4,0,0.9s0,1.1,0,1.5c0,0.6,0,1.3,0,2.2s0,1.3,0,1.3h-1.2
				c0,0,0-0.4,0-1s0-1.5,0-2.7c0-0.5,0-1.2,0-1.9s0-1.5,0-2.3h1.2l0,0.9l0,0c0.7-0.4,1.3-0.7,1.8-0.9s0.9-0.2,1.2-0.2
				c0.7,0,1.2,0.2,1.6,0.6s0.6,1,0.6,1.7c0,0.7,0,1.2,0,1.7s0,0.9,0,1.2c0,0.5,0,1.1,0,1.8S71.4,27.8,71.4,27.8z"/>
			<path class="st3" d="M79.6,23.3c0,1.3,0,2.3,0,3.2s0,1.2,0,1.3c-0.1,0-0.3,0-0.7,0.1s-1,0.1-1.7,0.1c-0.4,0-0.9,0-1.3-0.1
				s-0.8-0.2-1.1-0.3c-0.4-0.2-0.8-0.5-1-0.8s-0.4-0.7-0.4-1.2c0-0.5,0.2-0.9,0.5-1.3s0.7-0.7,1.3-0.9c0.3-0.1,0.8-0.3,1.4-0.4
				s1.2-0.2,1.9-0.3c0-0.4-0.1-0.7-0.3-1s-0.4-0.5-0.8-0.6c-0.2-0.1-0.5-0.2-0.8-0.2s-0.6-0.1-1-0.1c-0.2,0-0.4,0-0.6,0
				s-0.4,0-0.7,0l0.1-1c0.1,0,0.2,0,0.5,0s0.5,0,0.9,0c0.6,0,1.2,0.1,1.6,0.2s0.9,0.3,1.2,0.6c0.3,0.3,0.5,0.6,0.7,1
				S79.6,22.6,79.6,23.3z M78.4,25.2c0-0.2,0-0.4,0-0.7s0-0.6,0-0.9c-0.2,0-0.6,0.1-1.2,0.1s-1.1,0.2-1.4,0.3
				c-0.3,0.1-0.6,0.3-0.8,0.5s-0.3,0.5-0.3,0.8c0,0.4,0.1,0.6,0.3,0.9s0.5,0.4,0.8,0.5c0.3,0.1,0.5,0.2,0.8,0.2s0.6,0.1,1,0.1
				c0.1,0,0.2,0,0.4,0s0.3,0,0.5,0c0,0,0-0.2,0-0.5S78.4,25.7,78.4,25.2z"/>
		</g>
	</g>
</g>
<line class="st4" x1="23.7" y1="23.1" x2="9.7" y2="23.1"/>
<line class="st4" x1="209.7" y1="23.1" x2="195.7" y2="23.1"/>
</svg>
