<?xml version="1.0" encoding="utf-8"?>
<!-- Generator: Adobe Illustrator 27.2.0, SVG Export Plug-In . SVG Version: 6.00 Build 0)  -->
<svg version="1.1" id="레이어_1" xmlns="http://www.w3.org/2000/svg" xmlns:xlink="http://www.w3.org/1999/xlink" x="0px"
	 y="0px" viewBox="0 0 508.6 95.6" style="enable-background:new 0 0 508.6 95.6;" xml:space="preserve">
<style type="text/css">
	.st0{fill:#34A9CA;}
</style>
<g>
	<g>
		<rect x="104.7" y="2" class="st0" width="20.8" height="91.8"/>
		<path class="st0" d="M68.6,47.8h-0.3v1.3c0,13.8-10.3,24.5-23.5,24.5S21.2,62.9,21.2,49.1V2H0v47.1C0,74,19.6,93.5,44.7,93.5
			S89.4,74,89.4,49.1V2H68.6V47.8z"/>
		<path class="st0" d="M212.9,51.2c-1.2-1.8-2.7-3.2-4.3-4.3c-1.7-1.1-3.4-2-5.3-2.8c3.1-1.3,5.8-3.4,7.8-6.4
			c2.1-3,3.1-6.4,3.1-10.3c0-7.6-2.3-13.5-6.9-17.9C202.7,5.1,196,3,187.2,3h-44.1v89.5h40.3c11.3,0,19.7-2.4,25.2-7.2
			c5.5-4.8,8.2-11.3,8.2-19.5c0-3.2-0.4-6-1.1-8.4C215.1,55,214.1,52.9,212.9,51.2z M161.2,18.5h22.5c4.4,0,7.6,0.8,9.5,2.3
			s2.9,4,2.9,7.4c0,6.5-3.8,9.7-11.3,9.7h-23.6L161.2,18.5L161.2,18.5z M195,73.6c-2.4,2.4-5.8,3.6-10.1,3.6h-23.7V53.1h24
			c4.2,0,7.5,0.9,9.9,2.7s3.6,4.7,3.6,8.6C198.7,68.1,197.5,71.2,195,73.6z"/>
		<polygon class="st0" points="472.5,38.3 507.8,3 483.6,3 449.3,39.4 449.3,3 430.8,3 430.8,92.5 449.3,92.5 449.3,62 459.3,52.2 
			485.9,92.5 508.6,92.5 		"/>
		<path class="st0" d="M413.8,38.8c-0.5-3.7-1.2-7.2-2.2-10.5c-1.9-6.1-4.6-11.2-8.2-15.4s-8.1-7.4-13.4-9.6
			C384.6,1.1,378.5,0,371.7,0c-6.9,0-13,1.1-18.3,3.3s-9.8,5.4-13.5,9.6s-6.5,9.3-8.4,15.3c-0.9,3-1.7,6.3-2.1,9.7
			c-3.8-0.4-7.6-0.4-11.5-0.2c-0.5-3.3-1.1-6.4-2.1-9.3c-1.9-6.1-4.6-11.2-8.2-15.4s-8.1-7.4-13.4-9.6C288.8,1.1,282.8,0,275.9,0
			s-13,1.1-18.3,3.3c-5.3,2.2-9.8,5.4-13.5,9.6s-6.5,9.3-8.4,15.3c-1,3.3-1.8,6.9-2.2,10.7c-5.4,0.3-9.7,4.7-9.7,10.2
			s4.4,10,9.8,10.2c1.4,10.1,4.9,18.2,10.4,24.2c7.4,8.1,18,12.1,31.9,12.1c13.8,0,24.4-3.9,31.8-11.7c5.7-6.1,9.2-14.6,10.4-25.4
			c3.7-0.4,7.5-0.3,11.2,0.2c1.3,10.3,4.8,18.6,10.5,24.8c7.4,8.1,18,12.1,31.9,12.1c13.8,0,24.4-3.9,31.8-11.7
			c5.6-6,9-14.2,10.4-24.6c5.5-0.2,9.9-4.7,9.9-10.2C423.6,43.5,419.2,39,413.8,38.8z M298.3,62.7c-1.3,3.9-3,7-5.2,9.5
			s-4.8,4.3-7.8,5.5s-6.1,1.8-9.4,1.8c-7.8,0-13.9-2.4-18.1-7.3c-4.3-4.9-6.4-12.6-6.4-23.3c0-10.6,2.1-18.7,6.3-24.1
			c4.2-5.5,10.3-8.2,18.2-8.2c7.9,0,13.9,2.7,18.1,8.2c4.1,5.5,6.2,13.5,6.2,24.1C300.2,54.2,299.6,58.8,298.3,62.7z M394,62.7
			c-1.3,3.9-3,7-5.2,9.5s-4.8,4.3-7.8,5.5s-6.1,1.8-9.4,1.8c-7.8,0-13.9-2.4-18.1-7.3c-4.3-4.9-6.4-12.6-6.4-23.3
			c0-10.6,2.1-18.7,6.3-24.1c4.2-5.5,10.3-8.2,18.2-8.2c7.9,0,13.9,2.7,18.1,8.2c4.1,5.5,6.2,13.5,6.2,24.1
			C395.9,54.2,395.3,58.8,394,62.7z"/>
	</g>
</g>
</svg>
