<?xml version="1.0" encoding="utf-8"?>
<!-- Generator: Adobe Illustrator 27.2.0, SVG Export Plug-In . SVG Version: 6.00 Build 0)  -->
<svg version="1.1" id="레이어_1" xmlns="http://www.w3.org/2000/svg" xmlns:xlink="http://www.w3.org/1999/xlink" x="0px"
	 y="0px" viewBox="0 0 215 39" style="enable-background:new 0 0 215 39;" xml:space="preserve">
<style type="text/css">
	.st0{fill:#F9BE00;}
	.st1{fill:#196DF6;}
	.st2{fill:#004D7D;}
</style>
<g>
	<g>
		<path class="st0" d="M126.1,23.6L126.1,23.6c-0.7,0-1.3-0.6-1.3-1.3v-5.5c0-0.7,0.6-1.3,1.3-1.3l0,0c0.7,0,1.3,0.6,1.3,1.3v5.5
			C127.4,23,126.9,23.6,126.1,23.6z"/>
		<path class="st0" d="M110.7,26L110.7,26c0.7,0,1.3-0.6,1.3-1.3V14.4c0-0.7-0.6-1.3-1.3-1.3l0,0c-0.7,0-1.3,0.6-1.3,1.3v10.3
			C109.3,25.4,109.9,26,110.7,26z"/>
		<path class="st1" d="M105.1,22.2L105.1,22.2c0.7,0,1.3-0.6,1.3-1.3v-2.8c0-0.7-0.6-1.3-1.3-1.3l0,0c-0.7,0-1.3,0.6-1.3,1.3v2.8
			C103.8,21.7,104.4,22.2,105.1,22.2z"/>
		<g>
			<path class="st1" d="M120.8,8.5h-0.4c-0.6,0-1.1,0.5-1.1,1.1v2.1c0,0.6-0.5,1-1,1l0,0c-0.6,0-1-0.5-1-1V5.4
				c0-0.7-0.6-1.3-1.3-1.4c-0.7,0-1.4,0.6-1.4,1.3v28.2c0,0.7,0.6,1.3,1.3,1.4c0.7,0,1.4-0.6,1.4-1.3v-6.4c0-0.6,0.5-1,1-1l0,0
				c0.6,0,1,0.5,1,1v2.1c0,0.6,0.5,1.1,1.1,1.1h0.4c0.6,0,1.1-0.5,1.1-1.1V9.6C122,9,121.5,8.5,120.8,8.5z M119.5,23
				c0,0.5-0.4,0.9-0.9,0.9l0,0c-0.5,0-0.9-0.4-0.9-0.9v-7.3c0-0.5,0.4-0.9,0.9-0.9l0,0c0.5,0,0.9,0.4,0.9,0.9V23z"/>
		</g>
		<circle class="st1" cx="130.7" cy="19.5" r="1.2"/>
	</g>
	<path class="st2" d="M17.9,10.6c1.4,0,2.6,0.2,3.7,0.6c1,0.4,2,1,2.7,1.7c0.9,0.8,1.5,1.7,2,2.8c0.5,1.1,0.7,2.3,0.7,3.5
		c0,1.1-0.2,2.2-0.6,3.2c-0.4,1-0.9,1.9-1.6,2.6c-0.8,0.9-1.8,1.6-2.9,2.1c-1.1,0.5-2.5,0.8-4,0.8H8.6c-0.7,0-1.1-0.4-1.1-1.1V11.7
		c0-0.7,0.4-1.1,1.1-1.1H17.9z M12.5,15.2c-0.2,0-0.3,0.1-0.3,0.4V23c0,0.2,0.1,0.4,0.3,0.4h5.5c0.8,0,1.5-0.1,2.1-0.4
		c0.6-0.2,1-0.6,1.4-1c0.3-0.4,0.6-0.8,0.8-1.2c0.2-0.5,0.3-1,0.3-1.5c0-0.6-0.1-1.1-0.3-1.6c-0.2-0.5-0.5-1-0.9-1.3
		c-0.4-0.3-0.8-0.6-1.3-0.8c-0.5-0.2-1.2-0.3-1.9-0.3H12.5z"/>
	<path class="st2" d="M33.9,27.9h-4.6V11.7c0-0.7,0.4-1.1,1.1-1.1h12.3c1.1,0,2,0.1,2.7,0.4c0.7,0.3,1.3,0.7,1.8,1.2
		c0.4,0.4,0.8,1,1,1.5c0.2,0.6,0.4,1.2,0.4,1.9c0,0.7-0.1,1.4-0.4,2c-0.2,0.6-0.7,1.2-1.3,1.6c0.6,0.3,1,0.8,1.3,1.3
		c0.3,0.5,0.4,1.3,0.4,2.3v3.4c0,0.4,0,0.7,0,0.9c0,0.2,0,0.5,0.1,0.7h-4.7c-0.1-0.4-0.1-0.8-0.1-1.1v-3.4c0-0.5-0.1-0.9-0.4-1.2
		c-0.3-0.2-0.8-0.4-1.5-0.4h-8V27.9z M42.1,17.8c0.3,0,0.6-0.1,0.8-0.2c0.2-0.1,0.4-0.2,0.5-0.4c0.2-0.3,0.3-0.6,0.3-0.9
		c0-0.4-0.1-0.7-0.4-1c-0.3-0.3-0.7-0.5-1.3-0.5h-7.8c-0.3,0-0.4,0.1-0.4,0.4v2.5H42.1z"/>
	<path class="st2" d="M56.8,27.9c-1.1,0-2-0.1-2.8-0.3c-0.8-0.2-1.4-0.5-1.9-1c-0.5-0.5-0.8-1-1.1-1.7c-0.2-0.7-0.3-1.5-0.3-2.5
		V10.6h4.6v11.2c0,1.1,0.6,1.6,1.7,1.6h7.2c1.1,0,1.7-0.5,1.7-1.6V10.6h4.6v11.7c0,1.9-0.5,3.3-1.4,4.2c-0.9,0.9-2.5,1.3-4.6,1.3
		H56.8z"/>
	<path class="st2" d="M86.2,28.2c-0.6,0-1.2-0.1-1.7-0.4c-0.5-0.3-0.9-0.7-1.2-1.2l-5.2-10.8c-0.1-0.1-0.2-0.2-0.3-0.2
		c-0.1,0-0.2,0-0.3,0.1c-0.1,0.1-0.1,0.2-0.1,0.3v11.8h-4.4V15.2c0-1,0.1-1.8,0.4-2.4c0.3-0.6,0.7-1.1,1.2-1.6
		c0.4-0.3,0.8-0.6,1.3-0.8c0.5-0.2,1.1-0.3,1.7-0.3c1.1,0,2,0.3,2.7,0.9c0.7,0.6,1.3,1.4,1.7,2.3l3.9,8.5c0.1,0.2,0.2,0.3,0.4,0.3
		c0.2,0,0.3-0.1,0.4-0.3l3.9-8.5c0.4-1,1-1.7,1.7-2.3c0.7-0.6,1.6-0.9,2.7-0.9c0.6,0,1.2,0.1,1.7,0.3c0.5,0.2,0.9,0.4,1.3,0.8
		c0.5,0.4,0.9,0.9,1.2,1.6c0.3,0.6,0.4,1.4,0.4,2.4v12.6h-4.4V16c0-0.2,0-0.3-0.1-0.3c-0.1-0.1-0.2-0.1-0.3-0.1
		c-0.2,0-0.3,0.1-0.3,0.2l-5.2,10.8c-0.3,0.5-0.7,0.9-1.2,1.2S86.8,28.2,86.2,28.2z"/>
	<path class="st2" d="M140.5,10.6v17.3h-4.6V10.6H140.5z"/>
	<path class="st2" d="M153.5,10.6c1.4,0,2.6,0.2,3.7,0.6c1,0.4,2,1,2.7,1.7c0.9,0.8,1.5,1.7,2,2.8c0.5,1.1,0.7,2.3,0.7,3.5
		c0,1.1-0.2,2.2-0.6,3.2c-0.4,1-0.9,1.9-1.6,2.6c-0.8,0.9-1.8,1.6-2.9,2.1c-1.1,0.5-2.5,0.8-4,0.8h-9.3c-0.7,0-1.1-0.4-1.1-1.1V11.7
		c0-0.7,0.4-1.1,1.1-1.1H153.5z M148,15.2c-0.2,0-0.3,0.1-0.3,0.4V23c0,0.2,0.1,0.4,0.3,0.4h5.5c0.8,0,1.5-0.1,2.1-0.4s1-0.6,1.4-1
		c0.3-0.4,0.6-0.8,0.8-1.2c0.2-0.5,0.3-1,0.3-1.5c0-0.6-0.1-1.1-0.3-1.6c-0.2-0.5-0.5-1-0.9-1.3c-0.4-0.3-0.8-0.6-1.3-0.8
		c-0.5-0.2-1.2-0.3-1.9-0.3H148z"/>
	<path class="st2" d="M183,10.6v4.6h-13.1c-0.3,0-0.4,0.1-0.4,0.4v2h13.5v3.3h-13.5V23c0,0.3,0.1,0.5,0.4,0.5H183v4.4h-15.7
		c-1.6,0-2.4-0.8-2.4-2.4V12.9c0-1.5,0.8-2.3,2.4-2.3H183z"/>
	<path class="st2" d="M207.2,27.1c0.1,0.1,0.1,0.3,0.2,0.4c0,0.1,0.1,0.2,0.1,0.4h-5.2c0-0.1-0.1-0.2-0.1-0.3c0-0.1-0.1-0.2-0.1-0.3
		l-0.9-2.1H191l-0.9,2.1c0,0.1-0.1,0.2-0.1,0.3s-0.1,0.2-0.1,0.3h-5.3c0-0.1,0.1-0.3,0.1-0.4c0-0.1,0.1-0.2,0.2-0.4l6.2-13.7
		c0.5-1.1,1.1-1.9,1.9-2.4c0.8-0.5,1.8-0.8,3.1-0.8c1.2,0,2.2,0.3,3,0.8c0.8,0.5,1.5,1.3,2,2.4L207.2,27.1z M199.5,21.4l-2.7-6.2
		c-0.1-0.2-0.2-0.3-0.3-0.4c-0.1-0.1-0.3-0.1-0.5-0.1c-0.2,0-0.3,0-0.4,0.1c-0.1,0.1-0.2,0.2-0.3,0.4l-2.6,6.2H199.5z"/>
</g>
</svg>
