<?xml version="1.0" encoding="utf-8"?>
<!-- Generator: Adobe Illustrator 26.1.0, SVG Export Plug-In . SVG Version: 6.00 Build 0)  -->
<svg version="1.1" id="레이어_1" xmlns="http://www.w3.org/2000/svg" xmlns:xlink="http://www.w3.org/1999/xlink" x="0px"
	 y="0px" viewBox="0 0 36.4 23.8" style="enable-background:new 0 0 36.4 23.8;" xml:space="preserve">
<style type="text/css">
	.st0{fill:#0E81CE;}
	.st1{fill:#6AFFFF;}
	.st2{fill:none;}
	.st3{opacity:0.67;fill:#8B5A00;}
	.st4{fill:#4BABCE;}
	.st5{fill:#9141C4;}
	.st6{fill:#9C57D3;}
</style>
<g>
	<polygon class="st0" points="6.1,0.1 6.1,0 0,0.2 8.5,19.1 11.6,12.6 	"/>
	<path class="st1" d="M22.1,0.9c0.3,0,0.5-0.1,0.8-0.1C22.6,0.8,22.3,0.8,22.1,0.9z"/>
	<line class="st2" x1="14" y1="20" x2="14" y2="20"/>
	<path class="st3" d="M16.2,20.1c0.3,0.3,0.6,0.6,1,0.9C16.8,20.7,16.5,20.4,16.2,20.1L16.2,20.1z"/>
	<path class="st4" d="M24.7,5.5c0.7,0,1.3,0.1,2,0.4c1.4,0.4,2.6,1.3,3.4,2.5c0.3,0.4,0.5,0.8,0.7,1.3h0.1l3.4-4.7
		c-2.2-2.9-5.6-4.7-9.4-4.7c0,0,0,0,0,0c0,0,0,0,0,0c-0.3,0-0.7,0-1,0.1c-0.3,0-0.5,0.1-0.8,0.1c0,0,0,0,0,0c0,0,0,0,0,0
		C19.2,1,16,3.4,14.3,6.7l-0.4,0.8L8.5,19.1l2.1,4.7l0,0.1h1.6l1-2.2l0,0l0.4-0.8l1.1-2.5l0,0L19,9.2C20.1,7.1,22.3,5.5,24.7,5.5z"
		/>
	<path class="st0" d="M36.4,9.7c-0.4-1.8-1.1-3.4-2.1-4.7l-3.4,4.7H36.4z"/>
	<path class="st5" d="M31,14.1l3.3,4.7c1-1.4,1.7-3,2-4.7H31z"/>
	<path class="st6" d="M30.9,14.1c-0.2,0.5-0.4,1-0.7,1.4c-0.9,1.4-2.3,2.4-4,2.8c-0.5,0.1-1,0.2-1.5,0.2c-2.3,0-4.9-1.6-5.9-4
		l-2.6,5.6c0.3,0.3,0.6,0.6,0.9,0.9c0.1,0.1,0.2,0.1,0.2,0.2c0.2,0.2,0.5,0.4,0.7,0.5c0.1,0.1,0.3,0.2,0.4,0.2
		c0.2,0.1,0.5,0.3,0.7,0.4c0.3,0.1,0.6,0.3,0.8,0.4c0.3,0.1,0.5,0.2,0.8,0.3c0.2,0.1,0.5,0.2,0.7,0.2c0.2,0.1,0.4,0.1,0.6,0.2
		c0.3,0.1,0.5,0.1,0.8,0.2c0.2,0,0.4,0.1,0.6,0.1c0.4,0,0.7,0.1,1.1,0.1c0.1,0,0.2,0,0.3,0c0.4,0,0.8,0,1.1-0.1
		c3.5-0.3,6.5-2.2,8.4-4.9L31,14.1H30.9z"/>
</g>
</svg>
