<?xml version="1.0" encoding="utf-8"?>
<!-- Generator: Adobe Illustrator 27.0.0, SVG Export Plug-In . SVG Version: 6.00 Build 0)  -->
<svg version="1.1" id="레이어_1" xmlns="http://www.w3.org/2000/svg" xmlns:xlink="http://www.w3.org/1999/xlink" x="0px"
	 y="0px" viewBox="0 0 179.1 57.9" style="enable-background:new 0 0 179.1 57.9;" xml:space="preserve">
<style type="text/css">
	.st0{fill:#236092;}
</style>
<g>
	<g>
		<polygon class="st0" points="170.4,18 170.4,18 167.4,18 167.4,18 158.7,39.9 158.7,39.9 162.5,39.9 162.5,39.9 168.9,23.7 
			175.3,39.9 175.3,39.9 179.1,39.9 179.1,39.9 		"/>
		<polygon class="st0" points="162.4,18 146.9,18 146.9,21.5 152.9,21.5 152.9,39.9 156.4,39.9 156.4,21.5 162.4,21.5 		"/>
		<polygon class="st0" points="86.5,25.3 81.3,18 77,18 84.8,29 84.8,39.9 88.3,39.9 88.3,28.8 95.9,18 91.6,18 		"/>
		<polygon class="st0" points="63.2,39.9 75.2,39.9 75.2,36.4 67.2,36.4 67.2,30.7 75.2,30.7 75.2,27.2 67.2,27.2 67.2,21.5 
			75.2,21.5 75.2,18 63.2,18 		"/>
		<polygon class="st0" points="97.4,39.9 109.3,39.9 109.3,36.4 101.3,36.4 101.3,30.7 109.3,30.7 109.3,27.2 101.3,27.2 
			101.3,21.5 109.3,21.5 109.3,18 97.4,18 		"/>
		<g>
			<polygon class="st0" points="121.5,27 114.9,18 111.9,18 111.9,39.9 115.4,39.9 115.4,24.6 120,30.9 123,30.9 132.4,18 128,18 
							"/>
			<polygon class="st0" points="144.4,21.5 144.4,18 132.4,18 132.4,39.9 144.4,39.9 144.4,36.4 136.4,36.4 136.4,30.7 144.4,30.7 
				144.4,27.2 136.4,27.2 136.4,21.5 			"/>
		</g>
	</g>
	<g>
		<g>
			<path class="st0" d="M27.3,10.6V7.3c-10.7,0.8-19.2,9.3-20,20h3.3C11.4,18.4,18.4,11.4,27.3,10.6z"/>
			<path class="st0" d="M10.6,30.6H7.3c0.8,10.7,9.3,19.2,20,20v-3.4C18.4,46.5,11.4,39.5,10.6,30.6z"/>
			<path class="st0" d="M30.6,47.3v3.3c10.6-0.8,19.2-9.4,20-20h-3.3C46.5,39.5,39.5,46.5,30.6,47.3z"/>
			<path class="st0" d="M47.3,27.3h3.3c-0.8-10.6-9.4-19.2-20-20v3.3C39.5,11.4,46.5,18.4,47.3,27.3z"/>
		</g>
		<g>
			<path class="st0" d="M27.3,53.3v4.6h3.3v-4.6c-0.6,0-1.1,0.1-1.7,0.1C28.4,53.4,27.8,53.4,27.3,53.3z"/>
			<path class="st0" d="M30.6,4.6V0h-3.3v4.6c0.6,0,1.1-0.1,1.7-0.1C29.5,4.5,30.1,4.5,30.6,4.6z"/>
			<path class="st0" d="M4.6,27.3H0v3.3h4.6c0-0.6-0.1-1.1-0.1-1.7C4.5,28.4,4.5,27.8,4.6,27.3z"/>
			<path class="st0" d="M57.9,27.3h-4.6c0,0.6,0.1,1.1,0.1,1.7c0,0.6,0,1.1-0.1,1.7h4.6V27.3z"/>
		</g>
		<g>
			<path class="st0" d="M45.1,27.5c-3.2-0.2-3.4-1.7-3.4-1.8l0,0l-0.4-3.7c-0.1-3.6-2.4-4.7-3.6-4.8c-2.3-0.3-4,2.2-4.1,2.4
				l-2.3,3.2c0,0-1.9,2.9-2.9,4.3l0-2.5c0-1.4-0.4-2.5-1.2-3.3c-1-0.8-2.1-0.8-2.4-0.8c-2.2,0-4.1,2.4-4.4,2.9l-2.8,3.3
				c-1.1,1.4-3,1.7-3,1.7c-0.5,0.1-1.2,0.1-1.8,0c0,0.2,0,0.4,0,0.6c0,0.9,0.1,1.7,0.2,2.6c0.2,0,0.4,0,0.5,0c0.5,0,1.1,0,1.5-0.1
				c0.3,0,3.1-0.4,5-2.8l2.8-3.3l0.1-0.1c0.7-0.9,1.6-1.6,1.9-1.7l0.1,0l0.1,0c0,0,0.1,0,0.1,0c0,0,0.2,0.3,0.2,0.9v3.6
				c-0.1,0.5-0.1,1.7,0.7,2.6c0.4,0.4,1,0.9,2.1,0.9h0.2l0.2-0.1c0.4-0.1,1-0.5,2-2c0.2-0.3,2.1-3.2,3-4.5c0.2-0.3,0.4-0.5,0.4-0.6
				l0,0l2.3-3.2c0.3-0.5,1-1.1,1.1-1.1l0.1,0c0.2,0,0.7,0.5,0.8,1.9l0.4,3.7c0,0.4,0.1,1.7,1.3,3c1.1,1.2,2.9,1.8,5.2,1.9
				c0.1-0.5,0.1-1.1,0.1-1.7C45.1,28.4,45.1,28,45.1,27.5z"/>
		</g>
	</g>
</g>
</svg>
