<?xml version="1.0" encoding="utf-8"?>
<!-- Generator: Adobe Illustrator 27.2.0, SVG Export Plug-In . SVG Version: 6.00 Build 0)  -->
<svg version="1.1" id="레이어_1" xmlns="http://www.w3.org/2000/svg" xmlns:xlink="http://www.w3.org/1999/xlink" x="0px"
	 y="0px" viewBox="0 0 61.5 21.4" style="enable-background:new 0 0 61.5 21.4;" xml:space="preserve">
<style type="text/css">
	.st0{fill:#2C344C;}
</style>
<g>
	<rect x="22.1" y="1.3" class="st0" width="4.4" height="19.4"/>
	<path class="st0" d="M14.5,10.9L14.5,10.9l-0.1,0.3c0,2.9-2.2,5.2-5,5.2s-5-2.3-5-5.2V1.3H0v9.9c0,5.3,4.1,9.4,9.4,9.4
		s9.4-4.1,9.4-9.4V1.3h-4.4v9.6H14.5z"/>
	<path class="st0" d="M61,5.1c-0.3-0.8-0.7-1.4-1.3-2c-0.5-0.6-1.2-1-2-1.3s-1.6-0.5-2.6-0.5h-8.6v19.4h4.1v-7h4.5
		c1,0,1.8-0.2,2.6-0.5s1.4-0.7,2-1.3c0.5-0.5,1-1.2,1.3-1.9s0.4-1.6,0.4-2.4C61.5,6.6,61.3,5.8,61,5.1z M57.1,9.5
		c-0.5,0.5-1.4,0.8-2.5,0.8h-3.9V4.6h3.9c1.2,0,2,0.3,2.5,0.8s0.8,1.2,0.8,2C57.9,8.3,57.7,9,57.1,9.5z"/>
	<path class="st0" d="M43.8,12.2c-0.3-0.4-0.6-0.7-1-0.9s-0.8-0.5-1.2-0.7c-0.7-0.3-1.5-0.6-2.5-0.9c-0.9-0.2-1.9-0.5-3-0.8
		c-1-0.2-1.7-0.5-2.1-0.8c-0.4-0.3-0.5-0.7-0.5-1.2c0-0.6,0.2-1,0.7-1.3s1.3-0.5,2.3-0.5c1.1,0,1.9,0.2,2.4,0.6s0.8,1,0.9,1.9v0.3
		H44V7.6c0-0.9-0.2-1.8-0.6-2.5c-0.3-0.7-0.8-1.3-1.3-1.8c0.1-0.3,0.2-0.6,0.2-0.9C42.4,1.1,41.4,0,40,0c-1,0-1.8,0.6-2.2,1.5
		c-0.4,0-0.8-0.1-1.3-0.1c-0.3,0-0.7,0-1,0C35.2,0.6,34.3,0,33.4,0C32,0,31,1.1,31,2.4c0,0.3,0,0.6,0.1,0.8c-0.5,0.5-0.8,1-1.1,1.6
		c-0.3,0.7-0.4,1.5-0.4,2.4c0,1.2,0.3,2.2,0.8,3c0.5,0.7,1.3,1.3,2.4,1.8c0.7,0.3,1.4,0.5,2.2,0.7s1.7,0.4,2.9,0.7
		c0.5,0.1,1,0.3,1.3,0.4c0.3,0.1,0.6,0.3,0.8,0.5s0.3,0.3,0.4,0.5c0.1,0.2,0.1,0.4,0.1,0.6c0,0.7-0.3,1.3-0.8,1.7
		c-0.6,0.4-1.4,0.6-2.4,0.6c-1.2,0-2.1-0.3-2.7-0.7c-0.7-0.5-1-1.1-1-2v-0.3h-4.2V15c0,1.1,0.2,2,0.6,2.8s1,1.5,1.7,2
		c0.7,0.5,1.5,0.9,2.5,1.2c1,0.3,2,0.4,3.2,0.4c1.1,0,2.1-0.1,3-0.4c0.9-0.2,1.7-0.6,2.4-1.1s1.2-1.1,1.6-1.9
		c0.4-0.8,0.6-1.7,0.6-2.7c0-0.7-0.1-1.3-0.2-1.8C44.3,13,44.1,12.6,43.8,12.2z"/>
</g>
</svg>
